<?xml version="1.0" encoding="UTF-8" standalone="no"?>
<!-- Created with Inkscape (http://www.inkscape.org/) -->

<svg
   width="1280"
   height="896"
   viewBox="0 0 338.66666 237.06667"
   version="1.1"
   id="svg1"
   inkscape:export-filename="../../bitmap.png"
   inkscape:export-xdpi="96"
   inkscape:export-ydpi="96"
   inkscape:version="1.3.2 (091e20e, 2023-11-25)"
   sodipodi:docname="mapv2.svg"
   xmlns:inkscape="http://www.inkscape.org/namespaces/inkscape"
   xmlns:sodipodi="http://sodipodi.sourceforge.net/DTD/sodipodi-0.dtd"
   xmlns="http://www.w3.org/2000/svg"
   xmlns:svg="http://www.w3.org/2000/svg">
  <sodipodi:namedview
     id="namedview1"
     pagecolor="#ffffff"
     bordercolor="#000000"
     borderopacity="0.25"
     inkscape:showpageshadow="2"
     inkscape:pageopacity="0.0"
     inkscape:pagecheckerboard="0"
     inkscape:deskcolor="#d1d1d1"
     inkscape:document-units="mm"
     showgrid="true"
     inkscape:zoom="0.77469901"
     inkscape:cx="991.35276"
     inkscape:cy="782.8847"
     inkscape:window-width="1440"
     inkscape:window-height="786"
     inkscape:window-x="0"
     inkscape:window-y="25"
     inkscape:window-maximized="0"
     inkscape:current-layer="layer1"
     showguides="false">
    <inkscape:grid
       id="grid1"
       units="px"
       originx="0"
       originy="0"
       spacingx="33.866667"
       spacingy="33.866667"
       empcolor="#0099e5"
       empopacity="0.30196078"
       color="#0099e5"
       opacity="0.14901961"
       empspacing="5"
       dotted="false"
       gridanglex="30"
       gridanglez="30"
       visible="true" />
  </sodipodi:namedview>
  <defs
     id="defs1" />
  <g
     inkscape:label="Layer 1"
     inkscape:groupmode="layer"
     id="layer1">
    <rect
       style="fill:#000000;fill-opacity:1;stroke:none;stroke-width:0;stroke-linejoin:round;stroke-dasharray:none"
       id="rect1"
       width="33.866665"
       height="33.866665"
       x="33.866665"
       y="33.866665"
       ry="0"
       inkscape:export-filename="map.png"
       inkscape:export-xdpi="148.40904"
       inkscape:export-ydpi="148.40904" />
    <rect
       style="fill:#000000;fill-opacity:1;stroke:none;stroke-width:0;stroke-linejoin:round;stroke-dasharray:none"
       id="rect1-6-37"
       width="33.867001"
       height="33.866665"
       x="169.33333"
       y="101.6"
       ry="0" />
    <rect
       style="fill:#000000;fill-opacity:1;stroke:none;stroke-width:0;stroke-linejoin:round;stroke-dasharray:none"
       id="rect1-6-7"
       width="33.866665"
       height="33.866665"
       x="169.33333"
       y="135.46666"
       ry="0" />
    <rect
       style="fill:#000000;fill-opacity:1;stroke:none;stroke-width:0;stroke-linejoin:round;stroke-dasharray:none"
       id="rect1-6-7-9"
       width="33.866665"
       height="33.866665"
       x="169.33333"
       y="169.33333"
       ry="0" />
    <rect
       style="fill:#000000;fill-opacity:1;stroke:none;stroke-width:0;stroke-linejoin:round;stroke-dasharray:none"
       id="rect1-6-5"
       width="33.866665"
       height="33.866665"
       x="169.33333"
       y="67.73333"
       ry="0" />
    <rect
       style="fill:#000000;fill-opacity:1;stroke:none;stroke-width:0;stroke-linejoin:round;stroke-dasharray:none"
       id="rect1-6-3"
       width="33.866665"
       height="33.866665"
       x="135.46666"
       y="101.6"
       ry="0" />
    <rect
       style="fill:#000000;fill-opacity:1;stroke:none;stroke-width:0;stroke-linejoin:round;stroke-dasharray:none"
       id="rect1-6-6"
       width="33.866665"
       height="33.866665"
       x="203.2"
       y="101.6"
       ry="0" />
    <rect
       style="fill:#000000;fill-opacity:1;stroke:none;stroke-width:0;stroke-linejoin:round;stroke-dasharray:none"
       id="rect1-2"
       width="7.9375"
       height="33.866665"
       x="25.929167"
       y="33.866665"
       ry="0" />
    <rect
       style="fill:#000000;fill-opacity:1;stroke:none;stroke-width:0;stroke-linejoin:round;stroke-dasharray:none"
       id="rect1-2-8"
       width="7.9375"
       height="33.866665"
       x="67.73333"
       y="33.866665"
       ry="0" />
    <rect
       style="fill:#000000;fill-opacity:1;stroke:none;stroke-width:0;stroke-linejoin:round;stroke-dasharray:none"
       id="rect1-2-8-2"
       width="7.9375"
       height="33.866665"
       x="203.2"
       y="169.33333"
       ry="0" />
    <rect
       style="fill:#000000;fill-opacity:1;stroke:none;stroke-width:0;stroke-linejoin:round;stroke-dasharray:none"
       id="rect1-7"
       width="33.866665"
       height="7.9375"
       x="33.866665"
       y="25.929167"
       ry="0" />
    <rect
       style="fill:#000000;fill-opacity:1;stroke:none;stroke-width:0;stroke-linejoin:round;stroke-dasharray:none"
       id="rect1-7-5"
       width="33.866665"
       height="7.9375"
       x="33.866665"
       y="67.73333"
       ry="0" />
    <rect
       style="fill:#000000;fill-opacity:1;stroke:none;stroke-width:0;stroke-linejoin:round;stroke-dasharray:none"
       id="rect1-75"
       width="33.866665"
       height="33.866665"
       x="237.06667"
       y="101.6"
       ry="0"
       inkscape:export-filename="map.png"
       inkscape:export-xdpi="148.40904"
       inkscape:export-ydpi="148.40904" />
    <rect
       style="fill:#000000;fill-opacity:1;stroke:none;stroke-width:0;stroke-linejoin:round;stroke-dasharray:none"
       id="rect1-7-5-1"
       width="33.866665"
       height="7.9375"
       x="237.06667"
       y="135.46666"
       ry="0" />
    <circle
       style="fill:#000000;fill-opacity:1;stroke:none;stroke-width:0;stroke-linejoin:round;stroke-dasharray:none"
       id="path1"
       cx="67.741852"
       cy="67.719383"
       r="7.9375" />
    <circle
       style="fill:#000000;fill-opacity:1;stroke:none;stroke-width:0;stroke-linejoin:round;stroke-dasharray:none"
       id="path1-9"
       cx="67.731796"
       cy="33.866348"
       r="7.9375" />
    <circle
       style="fill:#000000;fill-opacity:1;stroke:none;stroke-width:0;stroke-linejoin:round;stroke-dasharray:none"
       id="path1-3"
       cx="33.868389"
       cy="67.730331"
       r="7.9375" />
    <circle
       style="fill:#000000;fill-opacity:1;stroke:none;stroke-width:0;stroke-linejoin:round;stroke-dasharray:none"
       id="path1-9-1"
       cx="33.876137"
       cy="33.850464"
       r="7.9375" />
    <path
       style="fill:#000000;fill-opacity:1;stroke:none;stroke-width:0;stroke-linejoin:round;stroke-dasharray:none"
       d="m 203.19793,169.3323 v -33.86873 l 33.87244,0.004 -0.005,7.93441 c -16.87214,-0.0197 -25.84112,6.0441 -25.93563,25.93049 z"
       id="path4"
       sodipodi:nodetypes="cccccc" />
    <rect
       style="fill:#000000;fill-opacity:1;stroke:none;stroke-width:0;stroke-linejoin:round;stroke-dasharray:none"
       id="rect1-2-8-2-1"
       width="7.9375"
       height="33.866665"
       x="-169.32861"
       y="169.33301"
       ry="0"
       transform="scale(-1,1)" />
    <rect
       style="fill:#000000;fill-opacity:1;stroke:none;stroke-width:0;stroke-linejoin:round;stroke-dasharray:none"
       id="rect1-2-8-2-1-8"
       width="7.936605"
       height="33.866665"
       x="-67.732437"
       y="203.2"
       ry="0"
       transform="scale(-1,1)" />
    <rect
       style="fill:#000000;fill-opacity:1;stroke:none;stroke-width:0;stroke-linejoin:round;stroke-dasharray:none"
       id="rect1-2-8-2-1-8-6"
       width="7.936605"
       height="33.866665"
       x="203.2009"
       y="33.866665"
       ry="0"
       transform="matrix(0,1,1,0,0,0)" />
    <rect
       style="fill:#000000;fill-opacity:1;stroke:none;stroke-width:0;stroke-linejoin:round;stroke-dasharray:none"
       id="rect1-2-8-2-1-8-2"
       width="7.936605"
       height="33.866665"
       x="33.867561"
       y="203.2"
       ry="0" />
    <path
       style="fill:#000000;fill-opacity:1;stroke:none;stroke-width:0;stroke-linejoin:round;stroke-dasharray:none"
       d="m 169.33068,169.332 v -33.86874 l -33.87244,0.004 0.005,7.93441 c 16.87214,-0.0197 25.84112,6.0441 25.93563,25.9305 z"
       id="path4-5"
       sodipodi:nodetypes="cccccc" />
    <path
       style="fill:#000000;fill-opacity:1;stroke-width:0;stroke-linejoin:round"
       d="m 161.3917,203.20104 49.74456,-5.3e-4 c 0,0 -0.27086,8.07391 -7.935,7.95616 -12.00941,-0.18452 -24.57939,0.15229 -33.87269,0.0855 -4.78708,-0.0344 -7.95488,-3.36158 -7.93687,-8.04116 z"
       id="path2"
       sodipodi:nodetypes="ccssc" />
    <path
       style="fill:#000000;fill-opacity:1;stroke-width:0;stroke-linejoin:round"
       d="m 270.93386,143.52612 -5.3e-4,-49.744558 c 0,0 8.07382,0.27086 7.95607,7.934998 -0.18452,12.00941 0.15229,24.57939 0.0855,33.87269 -0.0344,4.78707 -3.36154,7.95488 -8.04107,7.93687 z"
       id="path2-43"
       sodipodi:nodetypes="ccssc" />
    <rect
       style="fill:#000000;fill-opacity:1;stroke:none;stroke-width:0;stroke-linejoin:round;stroke-dasharray:none"
       id="rect1-6-7-3"
       width="33.866665"
       height="33.866665"
       x="-203.2"
       y="-101.71357"
       ry="0"
       transform="scale(-1)" />
    <rect
       style="fill:#000000;fill-opacity:1;stroke:none;stroke-width:0;stroke-linejoin:round;stroke-dasharray:none"
       id="rect1-6-7-9-7"
       width="33.866665"
       height="33.866665"
       x="-203.2"
       y="-67.846916"
       ry="0"
       transform="scale(-1)" />
    <rect
       style="fill:#000000;fill-opacity:1;stroke:none;stroke-width:0;stroke-linejoin:round;stroke-dasharray:none"
       id="rect1-2-8-2-7"
       width="7.9375"
       height="33.866665"
       x="-169.33333"
       y="-67.846916"
       ry="0"
       transform="scale(-1)" />
    <rect
       style="fill:#000000;fill-opacity:1;stroke:none;stroke-width:0;stroke-linejoin:round;stroke-dasharray:none"
       id="rect1-2-8-2-7-0"
       width="7.9375"
       height="33.866665"
       x="-142.93704"
       y="-33.866665"
       ry="0"
       transform="scale(-1)" />
    <path
       style="fill:#000000;fill-opacity:1;stroke:none;stroke-width:0;stroke-linejoin:round;stroke-dasharray:none"
       d="m 169.33539,67.847946 v 33.868734 l -33.87244,-0.004 0.005,-7.934414 c 16.87214,0.0197 25.84112,-6.0441 25.93563,-25.93049 z"
       id="path4-2"
       sodipodi:nodetypes="cccccc" />
    <rect
       style="fill:#000000;fill-opacity:1;stroke:none;stroke-width:0;stroke-linejoin:round;stroke-dasharray:none"
       id="rect1-2-8-2-1-5"
       width="7.9375"
       height="33.866665"
       x="203.20471"
       y="-67.847229"
       ry="0"
       transform="scale(1,-1)" />
    <rect
       style="fill:#000000;fill-opacity:1;stroke:none;stroke-width:0;stroke-linejoin:round;stroke-dasharray:none"
       id="rect1-7-5-1-5-6"
       width="33.866665"
       height="7.9375"
       x="237.07138"
       y="-101.71387"
       ry="0"
       transform="scale(1,-1)" />
    <rect
       style="fill:#000000;fill-opacity:1;stroke:none;stroke-width:0;stroke-linejoin:round;stroke-dasharray:none"
       id="rect1-75-7"
       width="33.866665"
       height="33.866665"
       x="-135.57965"
       y="101.60519"
       ry="0"
       inkscape:export-filename="map.png"
       inkscape:export-xdpi="148.40904"
       inkscape:export-ydpi="148.40904"
       transform="scale(-1,1)" />
    <rect
       style="fill:#000000;fill-opacity:1;stroke:none;stroke-width:0;stroke-linejoin:round;stroke-dasharray:none"
       id="rect1-7-5-1-1"
       width="33.866665"
       height="7.9375"
       x="-135.57965"
       y="135.47186"
       ry="0"
       transform="scale(-1,1)" />
    <path
       style="fill:#000000;fill-opacity:1;stroke-width:0;stroke-linejoin:round"
       d="m 101.71245,143.53131 5.3e-4,-49.744554 c 0,0 -8.073824,0.27086 -7.956074,7.934994 0.18452,12.00941 -0.15229,24.57939 -0.0855,33.87269 0.0344,4.78707 3.36154,7.95488 8.041074,7.93687 z"
       id="path2-43-7"
       sodipodi:nodetypes="ccssc" />
    <path
       style="fill:#000000;fill-opacity:1;stroke-width:0;stroke-linejoin:round"
       d="m 143.40706,33.979117 -49.74456,5.3e-4 c 0,0 0.27086,-8.073824 7.935,-7.956074 12.00941,0.18452 24.57939,-0.15229 33.87269,-0.0855 4.78707,0.0344 7.95488,3.36154 7.93687,8.041074 z"
       id="path2-43-7-7"
       sodipodi:nodetypes="ccssc" />
    <rect
       style="fill:#000000;fill-opacity:1;stroke:none;stroke-width:0;stroke-linejoin:round;stroke-dasharray:none"
       id="rect1-7-5-1-5-6-4"
       width="33.866665"
       height="7.9375"
       x="-135.57492"
       y="-101.71906"
       ry="0"
       transform="scale(-1)" />
    <path
       style="fill:#000000;fill-opacity:1;stroke:none;stroke-width:0;stroke-linejoin:round;stroke-dasharray:none"
       d="m 203.20264,67.848246 v 33.868744 l 33.87244,-0.004 -0.005,-7.934414 c -16.87214,0.0197 -25.84112,-6.0441 -25.93563,-25.9305 z"
       id="path4-5-3"
       sodipodi:nodetypes="cccccc" />
    <path
       style="fill:#000000;fill-opacity:1;stroke-width:0;stroke-linejoin:round"
       d="m 211.14162,33.979203 -49.74456,5.3e-4 c 0,0 0.27086,-8.07391 7.935,-7.95616 12.00941,0.18452 24.57939,-0.15229 33.87269,-0.0855 4.78708,0.0344 7.95488,3.36158 7.93687,8.04116 z"
       id="path2-4"
       sodipodi:nodetypes="ccssc" />
    <path
       style="fill:#000000;fill-opacity:1;stroke-width:0;stroke-linejoin:round"
       d="m 41.561523,208.60179 18.332594,0.32867 -0.108989,10.77569 c 0.01975,-10.85828 -18.104255,-10.71354 -18.007067,-0.3701 -0.150868,-10.23404 -0.168946,-10.61459 -0.168946,-10.61459 z"
       id="path3"
       sodipodi:nodetypes="cccccc" />
    <g
       id="g5"
       transform="translate(33.866488,67.733223)"
       style="fill:#000000">
      <path
         id="rect1-6-7-7-4"
         style="fill:#000000;fill-opacity:1;stroke:none;stroke-width:0;stroke-linejoin:round;stroke-dasharray:none"
         d="M 114.04557 305.62453 L 77.53332 305.62453 L 77.53332 317.00697 L 95.789447 335.2631 L 114.04557 317.00697 L 114.04557 305.62453 z "
         transform="rotate(-45)" />
      <rect
         style="fill:#000000;fill-opacity:1;stroke-width:0;stroke-linejoin:round"
         id="rect5"
         width="8.0952234"
         height="8.0473394"
         x="270.9306"
         y="161.29073" />
      <rect
         style="fill:#000000;fill-opacity:1;stroke-width:0;stroke-linejoin:round"
         id="rect5-1"
         width="8.0431108"
         height="8.8187695"
         x="296.75629"
         y="135.46625" />
    </g>
    <path
       style="fill:#000000;fill-opacity:1;stroke-width:0;stroke-linejoin:round"
       d="m 338.66446,169.33041 0.0148,-7.96973 c -2.64109,-0.0164 -5.16564,5.30255 -8.05857,7.96836 8.11872,0.15035 8.04365,0.001 8.04365,0.001 z"
       id="path5"
       sodipodi:nodetypes="ccccc" />
    <path
       style="fill:#000000;fill-opacity:1;stroke-width:0;stroke-linejoin:round"
       d="m 304.79793,203.20103 0.003,-8.04912 -8.04498,8.04912 z"
       id="path6" />
  </g>
</svg>
