<?xml version="1.0" encoding="UTF-8" standalone="no"?>
<!-- Created with Inkscape (http://www.inkscape.org/) -->

<svg
   width="640"
   height="256"
   viewBox="0 0 169.33333 67.733333"
   version="1.1"
   id="svg1"
   xml:space="preserve"
   inkscape:export-filename="../../Sprites/Map/river tileset.png"
   inkscape:export-xdpi="96"
   inkscape:export-ydpi="96"
   inkscape:version="1.3.2 (091e20e, 2023-11-25)"
   sodipodi:docname="river tileset.svg"
   xmlns:inkscape="http://www.inkscape.org/namespaces/inkscape"
   xmlns:sodipodi="http://sodipodi.sourceforge.net/DTD/sodipodi-0.dtd"
   xmlns="http://www.w3.org/2000/svg"
   xmlns:svg="http://www.w3.org/2000/svg"><sodipodi:namedview
     id="namedview1"
     pagecolor="#ffffff"
     bordercolor="#000000"
     borderopacity="0.25"
     inkscape:showpageshadow="2"
     inkscape:pageopacity="0.0"
     inkscape:pagecheckerboard="0"
     inkscape:deskcolor="#d1d1d1"
     inkscape:document-units="px"
     showgrid="true"
     inkscape:zoom="0.66542376"
     inkscape:cx="479.39376"
     inkscape:cy="114.21293"
     inkscape:window-width="1312"
     inkscape:window-height="449"
     inkscape:window-x="0"
     inkscape:window-y="25"
     inkscape:window-maximized="0"
     inkscape:current-layer="layer1"><inkscape:grid
       id="grid1"
       units="px"
       originx="0"
       originy="0"
       spacingx="33.866667"
       spacingy="33.866667"
       empcolor="#0099e5"
       empopacity="0.30196078"
       color="#0099e5"
       opacity="0.14901961"
       empspacing="5"
       dotted="false"
       gridanglex="30"
       gridanglez="30"
       visible="true" /></sodipodi:namedview><defs
     id="defs1" /><g
     inkscape:label="Layer 1"
     inkscape:groupmode="layer"
     id="layer1"><rect
       style="fill:#ffffff;stroke-width:0;stroke-linejoin:round"
       id="rect1"
       width="17.991667"
       height="33.866665"
       x="7.9375"
       y="-67.73333"
       transform="scale(1,-1)" /><rect
       style="fill:#ffffff;stroke-width:0;stroke-linejoin:round"
       id="rect1-7"
       width="33.866665"
       height="17.991667"
       x="7.1054274e-15"
       y="-25.929171"
       transform="scale(1,-1)" /><path
       id="path2-52"
       style="fill:#ffffff;stroke-width:0;stroke-linejoin:round"
       d="m 41.804167,67.733333 a 8.9958334,8.9958334 0 0 1 8.919869,-7.9375 8.9958334,8.9958334 0 0 1 8.920385,7.9375 z" /><path
       id="path2-52-5"
       style="fill:#ffffff;stroke-width:0;stroke-linejoin:round"
       d="m 93.51109,33.866667 a 8.9958334,8.9958334 0 0 1 -8.919872,7.9375 8.9958334,8.9958334 0 0 1 -8.920385,-7.9375 z" /><circle
       style="fill:#ffffff;stroke-width:0;stroke-linejoin:round"
       id="path2-5"
       cx="68.791672"
       cy="-16.933336"
       r="8.9958334"
       transform="scale(1,-1)" /><path
       id="path3"
       style="fill:#ffffff;stroke-width:0;stroke-linejoin:round"
       d="M 135.46666 7.9374999 A 25.929167 25.929167 0 0 0 109.5375 33.866666 A 25.929167 25.929167 0 0 0 135.46666 59.795833 A 25.929167 25.929167 0 0 0 161.39583 33.866666 A 25.929167 25.929167 0 0 0 135.46666 7.9374999 z M 135.46666 25.929166 A 7.9375 7.9375 0 0 1 143.40416 33.866666 A 7.9375 7.9375 0 0 1 135.46666 41.804166 A 7.9375 7.9375 0 0 1 127.52917 33.866666 A 7.9375 7.9375 0 0 1 135.46666 25.929166 z " /></g></svg>
